<svg width="139" height="27" viewBox="0 0 139 27" fill="none" xmlns="http://www.w3.org/2000/svg">
<path fill-rule="evenodd" clip-rule="evenodd" d="M0 13.0519C0 11.5954 0.270747 10.2977 0.812241 9.15871C1.37241 8.00104 2.13797 7.09544 3.10892 6.44191C4.07988 5.76971 5.19087 5.43361 6.44191 5.43361C7.39419 5.43361 8.27178 5.65768 9.07469 6.10581C9.87759 6.53527 10.4844 7.13278 10.8952 7.89834V0H16.2168V14.5643C16.2168 15.0685 16.2915 15.4232 16.4409 15.6286C16.5903 15.8154 16.8517 15.9274 17.2251 15.9647V20.4461C16.3102 20.6328 15.5633 20.7261 14.9844 20.7261C14.0882 20.7261 13.3786 20.5581 12.8558 20.222C12.333 19.8859 11.9969 19.3724 11.8475 18.6815L11.7355 18.1494C11.2313 19.0456 10.5498 19.6992 9.69087 20.11C8.83195 20.5207 7.91701 20.7261 6.94606 20.7261C5.93776 20.7261 5.00415 20.5394 4.14523 20.166C3.30498 19.7925 2.56743 19.2697 1.93257 18.5975C1.31639 17.9066 0.840249 17.0944 0.504149 16.1608C0.16805 15.2085 0 14.1722 0 13.0519ZM10.9232 14.7324V12.0996C10.7552 11.6701 10.5218 11.2967 10.223 10.9793C9.94295 10.6432 9.62552 10.3817 9.27075 10.195C8.91598 10.0083 8.55187 9.91494 8.17842 9.91494C7.78631 9.91494 7.4222 9.99896 7.0861 10.167C6.76867 10.3351 6.48859 10.5685 6.24585 10.8672C6.00311 11.166 5.81639 11.5114 5.68568 11.9035C5.55498 12.2956 5.48963 12.7158 5.48963 13.1639C5.48963 13.6307 5.55498 14.0508 5.68568 14.4243C5.83506 14.7977 6.04046 15.1245 6.30187 15.4046C6.56328 15.666 6.87137 15.8714 7.22614 16.0207C7.58091 16.1701 7.97303 16.2448 8.40249 16.2448C8.6639 16.2448 8.90664 16.2168 9.13071 16.1608C9.35477 16.0861 9.5695 15.9927 9.7749 15.8807C9.98029 15.75 10.1763 15.5913 10.3631 15.4046C10.5685 15.1992 10.7552 14.9751 10.9232 14.7324ZM17.4783 15.9927C17.4783 15.0031 17.749 14.1349 18.2905 13.388C18.832 12.6224 19.5789 12.0249 20.5312 11.5954C21.5021 11.166 22.6038 10.9512 23.8362 10.9512C24.415 10.9512 24.9565 10.9979 25.4606 11.0913C25.9835 11.1846 26.4316 11.3247 26.805 11.5114V11.0633C26.805 10.3724 26.5996 9.85892 26.1889 9.52282C25.7967 9.18672 25.1525 9.01867 24.2563 9.01867C23.4347 9.01867 22.6598 9.15871 21.9316 9.4388C21.222 9.70021 20.4752 10.0923 19.6909 10.6151L18.1505 7.31017C19.1401 6.67531 20.1764 6.20851 21.2594 5.90975C22.3611 5.59232 23.5374 5.43361 24.7884 5.43361C27.1225 5.43361 28.9243 5.96577 30.194 7.03008C31.4824 8.07573 32.1266 9.63486 32.1266 11.7075V14.5643C32.1266 15.0685 32.2013 15.4232 32.3507 15.6286C32.5001 15.8154 32.7615 15.9274 33.1349 15.9647V20.4461C32.7055 20.5394 32.2947 20.6048 31.9025 20.6421C31.5291 20.6981 31.193 20.7261 30.8942 20.7261C29.942 20.7261 29.2138 20.5581 28.7096 20.222C28.2241 19.8672 27.9067 19.3537 27.7573 18.6815L27.6453 18.1494C26.9918 18.9896 26.2355 19.6338 25.3766 20.082C24.5177 20.5114 23.6028 20.7261 22.6318 20.7261C21.6608 20.7261 20.7833 20.5207 19.999 20.11C19.2148 19.6992 18.5986 19.139 18.1505 18.4295C17.7023 17.7012 17.4783 16.889 17.4783 15.9927ZM26.1048 16.3568C26.3102 16.2075 26.4783 16.0488 26.609 15.8807C26.7397 15.694 26.805 15.5073 26.805 15.3205V14.2282C26.5063 14.1162 26.1608 14.0228 25.7687 13.9481C25.3953 13.8734 25.0592 13.8361 24.7604 13.8361C24.1256 13.8361 23.5841 13.9948 23.136 14.3122C22.7065 14.6297 22.4918 15.0311 22.4918 15.5166C22.4918 15.778 22.5664 16.0207 22.7158 16.2448C22.8652 16.4502 23.0706 16.6183 23.332 16.749C23.5934 16.861 23.8922 16.917 24.2283 16.917C24.5457 16.917 24.8725 16.8703 25.2086 16.777C25.5633 16.6649 25.8621 16.5249 26.1048 16.3568ZM33.9369 5.71369V20.4461H39.2584V5.71369H33.9369ZM33.9369 0V4.48133H39.2584V0H33.9369ZM40.7186 0H46.0402V14.5923C46.0402 15.1338 46.1522 15.5539 46.3763 15.8527C46.619 16.1328 46.9644 16.2728 47.4126 16.2728C47.6366 16.2728 47.8794 16.2355 48.1408 16.1608C48.4022 16.0861 48.6449 15.9834 48.869 15.8527L49.5412 19.7739C48.9064 20.0726 48.1875 20.306 47.3846 20.4741C46.6003 20.6421 45.8534 20.7261 45.1439 20.7261C43.7248 20.7261 42.6325 20.362 41.8669 19.6338C41.1014 18.8869 40.7186 17.832 40.7186 16.4689V0ZM49.7734 22.2666C49.4186 22.1919 49.0265 22.0799 48.597 21.9305V26.4678C49.0452 26.6546 49.4933 26.7853 49.9414 26.86C50.4082 26.9533 50.875 27 51.3418 27C52.3501 27 53.2931 26.7946 54.1707 26.3838C55.0483 25.9917 55.8045 25.4315 56.4393 24.7033C57.0742 23.9938 57.5317 23.1629 57.8117 22.2106L62.7972 5.71369H57.8398L55.5711 14.9844L52.7703 5.71369H47.3086L52.6582 20.4461C52.6209 20.8755 52.5275 21.2396 52.3781 21.5384C52.2288 21.8371 52.0234 22.0519 51.762 22.1826C51.5005 22.332 51.1738 22.4066 50.7817 22.4066C50.4829 22.4066 50.1468 22.36 49.7734 22.2666ZM68.7061 20.7261C67.4177 20.7261 66.148 20.5207 64.897 20.11C63.6646 19.6805 62.619 19.0643 61.76 18.2614L63.5806 14.9844C64.4955 15.582 65.3731 16.0488 66.2134 16.3849C67.0723 16.721 67.8472 16.889 68.5381 16.889C68.9302 16.889 69.2196 16.8423 69.4063 16.749C69.593 16.6369 69.6864 16.4595 69.6864 16.2168C69.6864 16.0488 69.621 15.9087 69.4903 15.7967C69.3596 15.6846 69.1449 15.5726 68.8461 15.4606C68.5661 15.3485 68.202 15.2272 67.7538 15.0965C66.5961 14.6857 65.6252 14.3029 64.841 13.9481C64.0754 13.5934 63.4966 13.1639 63.1044 12.6598C62.731 12.1369 62.5443 11.4461 62.5443 10.5871C62.5443 9.57884 62.7964 8.69191 63.3005 7.92635C63.8047 7.14212 64.5235 6.52593 65.4571 6.0778C66.4094 5.62967 67.5484 5.4056 68.8742 5.4056C69.8638 5.4056 70.8534 5.56432 71.843 5.88174C72.8513 6.1805 73.8223 6.73133 74.7559 7.53423L72.7393 10.7832C71.8057 10.2044 71.0121 9.79357 70.3586 9.55083C69.7237 9.30809 69.1542 9.18672 68.6501 9.18672C68.4073 9.18672 68.1926 9.21473 68.0059 9.27075C67.8378 9.32676 67.7071 9.41079 67.6138 9.52282C67.5204 9.63486 67.4737 9.78423 67.4737 9.97095C67.4737 10.1577 67.5391 10.3164 67.6698 10.4471C67.8005 10.5591 68.0059 10.6712 68.286 10.7832C68.5661 10.8766 68.9208 10.9886 69.3503 11.1193C70.62 11.4927 71.6563 11.8755 72.4592 12.2676C73.2621 12.6411 73.8503 13.0985 74.2237 13.64C74.6159 14.1815 74.8119 14.8911 74.8119 15.7687C74.8119 17.3185 74.2611 18.5322 73.1594 19.4098C72.0764 20.2873 70.592 20.7261 68.7061 20.7261ZM82.8496 20.11C83.6339 20.5207 84.5582 20.7261 85.6225 20.7261C86.8362 20.7261 87.9098 20.39 88.8434 19.7178C89.3317 19.3732 89.7659 18.9648 90.1462 18.4925C89.0225 16.8592 88.3646 14.8803 88.3646 12.7468C88.3646 12.1333 88.4198 11.54 88.523 10.9622L88.5236 10.9588L88.5242 10.9554C88.585 10.6247 88.6594 10.2994 88.7479 9.97971L88.749 9.97569L88.7501 9.97168C88.8538 9.60521 88.9783 9.24564 89.1234 8.8932L89.1255 8.88807L89.1322 8.87237C89.1759 8.76846 89.2316 8.63608 89.296 8.49954C89.4588 8.14086 89.6424 7.79427 89.8455 7.461C89.2562 6.83266 88.5767 6.34359 87.8071 5.99378C86.9855 5.62033 86.0799 5.43361 85.0903 5.43361C83.9886 5.43361 83.0457 5.64834 82.2615 6.0778C81.4959 6.50726 80.8517 7.12344 80.3289 7.92635V5.71369H75.7075V26.4118H81.0291V18.2614C81.4586 19.0643 82.0654 19.6805 82.8496 20.11ZM84.8382 15.9927C84.5208 16.1608 84.166 16.2448 83.7739 16.2448C83.4005 16.2448 83.0364 16.1515 82.6816 15.9647C82.3268 15.7593 82.0001 15.4886 81.7013 15.1525C81.4212 14.7977 81.1972 14.4056 81.0291 13.9761V11.4274C81.1972 11.166 81.3745 10.9419 81.5613 10.7552C81.7667 10.5685 81.9721 10.4191 82.1774 10.3071C82.3828 10.1763 82.5976 10.083 82.8216 10.027C83.0644 9.95228 83.3071 9.91494 83.5499 9.91494C83.9793 9.91494 84.3714 9.98963 84.7262 10.139C85.081 10.2884 85.3891 10.5031 85.6505 10.7832C85.9119 11.0446 86.1079 11.362 86.2386 11.7355C86.388 12.1089 86.4627 12.529 86.4627 12.9959C86.4627 13.444 86.3974 13.8641 86.2667 14.2562C86.1359 14.6483 85.9492 14.9938 85.7065 15.2925C85.4638 15.5913 85.1743 15.8247 84.8382 15.9927Z" fill="#141414"/>
<path d="M101.719 11.5641L101.22 11.2017L100.288 10.5246L98.7671 9.41972L98.6899 9.36032C98.6017 9.29566 98.4553 9.29499 98.3602 9.35256C98.3582 9.35374 98.3576 9.35405 98.3554 9.35468C98.3518 9.35572 98.3495 9.36167 98.3465 9.36397L98.274 9.41972L97.9057 9.68702L96.8365 10.4652L95.8208 11.2017L95.3219 11.5641C95.2268 11.6295 95.1793 11.778 95.215 11.8848L96.3733 15.4488C96.4089 15.5617 96.5336 15.6508 96.6465 15.6508H100.395C100.507 15.6508 100.632 15.5617 100.668 15.4488L101.826 11.8848C101.862 11.772 101.814 11.6295 101.719 11.5641Z" fill="#E1E601"/>
<path fill-rule="evenodd" clip-rule="evenodd" d="M103.679 5.67458C103.431 5.49256 103.173 5.32301 102.905 5.16685C102.866 5.14587 102.829 5.12489 102.791 5.10391C102.754 5.0833 102.717 5.06268 102.679 5.04205C102.115 4.73911 101.515 4.48962 100.885 4.31742C100.357 4.16892 99.8042 4.06794 99.2399 4.02042C99.0023 4.00254 98.7647 3.99072 98.5212 3.99072C97.8203 3.99072 97.1431 4.07382 96.4897 4.22832C96.0917 4.32336 95.7056 4.44216 95.3255 4.59067C94.7374 4.82233 94.185 5.11338 93.6682 5.4579C92.8366 6.01038 92.106 6.7053 91.506 7.5072C91.1378 7.99428 90.8229 8.52301 90.5675 9.08731C90.5143 9.19963 90.4669 9.31208 90.4196 9.42447L90.419 9.42589C90.2943 9.72883 90.1874 10.0377 90.0983 10.3525C90.021 10.6317 89.9557 10.9168 89.9022 11.2079C89.8131 11.7068 89.7656 12.2177 89.7656 12.7463C89.7656 17.5814 93.686 21.4959 98.5152 21.4959C100.446 21.4935 102.232 20.8668 103.679 19.8067V16.7921L102.073 17.029C101.96 17.0468 101.83 17.1478 101.782 17.2548L100.921 19.2803C100.161 19.5595 99.3528 19.7021 98.5152 19.7021C97.6777 19.7021 96.8699 19.5536 96.1095 19.2803L95.2482 17.2548C95.2007 17.1478 95.076 17.0468 94.9572 17.029L92.7831 16.7083C91.9753 15.55 91.5417 14.1778 91.5417 12.7344V12.6572L93.1277 11.1959L93.1514 11.1722C93.2346 11.095 93.288 10.9406 93.2643 10.8218L92.991 9.41401L92.8841 8.88534L92.8425 8.6715C93.0623 8.36851 93.3059 8.0775 93.5791 7.8042C93.9949 7.3884 94.4582 7.032 94.9512 6.735C95.4086 6.46176 95.9016 6.24198 96.4065 6.0816L97.3391 6.60439L98.1291 7.04989L98.3252 7.1568C98.4261 7.2162 98.5925 7.2162 98.6934 7.1568L100.612 6.0816C100.861 6.15888 101.105 6.25386 101.343 6.3549C101.497 6.42618 101.658 6.5034 101.806 6.58062C102.4 6.90138 102.952 7.3053 103.44 7.79832C103.523 7.88148 103.603 7.96463 103.679 8.04944V5.67458ZM105.08 15.0995C105.349 14.3516 105.489 13.5545 105.489 12.7344C105.489 12.7107 105.489 12.6869 105.465 12.6572L105.08 12.3023V6.94994C105.107 6.98106 105.135 7.01238 105.162 7.04388C105.513 7.44781 105.821 7.88743 106.095 8.35669C106.11 8.38639 106.126 8.41459 106.142 8.44279C106.159 8.47099 106.175 8.49919 106.19 8.52889C106.35 8.81401 106.493 9.11101 106.617 9.41989C106.778 9.81199 106.914 10.2218 107.015 10.6436C107.063 10.8262 107.098 11.0088 107.133 11.1915L107.134 11.196C107.223 11.6949 107.271 12.2117 107.271 12.7344C107.271 14.9558 106.443 16.9841 105.08 18.5285V15.0995Z" fill="#E1E601"/>
<path d="M115.079 10.2508C114.052 10.2508 113.118 10.3628 112.278 10.5869C111.438 10.8109 110.812 11.1844 110.402 11.7072V20.4458H105.08V5.71341H109.954V8.51424C110.476 7.52461 111.13 6.76839 111.914 6.24557C112.698 5.70407 113.529 5.43333 114.407 5.43333C114.612 5.43333 114.752 5.43333 114.827 5.43333C114.92 5.43333 115.004 5.44266 115.079 5.46134V10.2508Z" fill="#141414"/>
<path d="M125.947 19.6335C125.461 19.8389 124.938 20.035 124.378 20.2217C123.837 20.3898 123.277 20.5205 122.698 20.6138C122.138 20.7072 121.587 20.7539 121.045 20.7539C120.242 20.7539 119.505 20.6232 118.833 20.3618C118.16 20.0817 117.619 19.6335 117.208 19.0174C116.816 18.3825 116.62 17.5329 116.62 16.4686V9.7186H114.799V5.71341H116.62V1.09204H121.942V5.71341H124.826V9.7186H121.942V14.592C121.942 15.0775 122.044 15.423 122.25 15.6283C122.455 15.8151 122.735 15.9084 123.09 15.9084C123.351 15.9084 123.65 15.8618 123.986 15.7684C124.322 15.675 124.658 15.563 124.994 15.4323L125.947 19.6335Z" fill="#141414"/>
<path d="M132.244 20.7259C130.956 20.7259 129.686 20.5205 128.435 20.1097C127.203 19.6802 126.157 19.064 125.298 18.2611L127.119 14.9842C128.034 15.5817 128.911 16.0485 129.752 16.3846C130.611 16.7207 131.385 16.8887 132.076 16.8887C132.468 16.8887 132.758 16.842 132.945 16.7487C133.131 16.6366 133.225 16.4593 133.225 16.2165C133.225 16.0485 133.159 15.9084 133.029 15.7964C132.898 15.6844 132.683 15.5723 132.384 15.4603C132.104 15.3483 131.74 15.2269 131.292 15.0962C130.134 14.6854 129.163 14.3026 128.379 13.9479C127.614 13.5931 127.035 13.1636 126.643 12.6595C126.269 12.1366 126.083 11.4458 126.083 10.5869C126.083 9.57856 126.335 8.69163 126.839 7.92607C127.343 7.14183 128.062 6.52565 128.995 6.07752C129.948 5.62939 131.087 5.40532 132.412 5.40532C133.402 5.40532 134.392 5.56403 135.381 5.88146C136.39 6.18022 137.361 6.73105 138.294 7.53395L136.278 10.7829C135.344 10.2041 134.55 9.79329 133.897 9.55055C133.262 9.30781 132.693 9.18644 132.188 9.18644C131.946 9.18644 131.731 9.21445 131.544 9.27046C131.376 9.32648 131.245 9.41051 131.152 9.52254C131.059 9.63457 131.012 9.78395 131.012 9.97067C131.012 10.1574 131.077 10.3161 131.208 10.4468C131.339 10.5588 131.544 10.6709 131.824 10.7829C132.104 10.8763 132.459 10.9883 132.889 11.119C134.158 11.4925 135.195 11.8752 135.998 12.2674C136.8 12.6408 137.389 13.0983 137.762 13.6398C138.154 14.1813 138.35 14.8908 138.35 15.7684C138.35 17.3182 137.799 18.5319 136.698 19.4095C135.615 20.2871 134.13 20.7259 132.244 20.7259Z" fill="#141414"/>
</svg>
