<svg width="154" height="30" viewBox="0 0 154 30" fill="none" xmlns="http://www.w3.org/2000/svg">
<path fill-rule="evenodd" clip-rule="evenodd" d="M0 14.5021C0 12.8838 0.30083 11.4419 0.90249 10.1763C1.5249 8.89004 2.37552 7.88382 3.45436 7.15768C4.5332 6.41079 5.76763 6.03734 7.15768 6.03734C8.21577 6.03734 9.19087 6.28631 10.083 6.78423C10.9751 7.26141 11.6494 7.92531 12.1058 8.77593V0H18.0187V16.1826C18.0187 16.7427 18.1017 17.1369 18.2676 17.3651C18.4336 17.5726 18.7241 17.6971 19.139 17.7386V22.7178C18.1224 22.9253 17.2925 23.029 16.6494 23.029C15.6535 23.029 14.8651 22.8423 14.2842 22.4689C13.7033 22.0954 13.3299 21.5249 13.1639 20.7573L13.0394 20.166C12.4793 21.1618 11.722 21.888 10.7676 22.3444C9.81328 22.8008 8.79668 23.029 7.71784 23.029C6.59751 23.029 5.56017 22.8216 4.60581 22.4066C3.6722 21.9917 2.8527 21.4108 2.1473 20.6639C1.46266 19.8963 0.93361 18.9938 0.560166 17.9564C0.186722 16.8983 0 15.7469 0 14.5021ZM12.1369 16.3693V13.444C11.9502 12.9668 11.6909 12.5519 11.3589 12.1992C11.0477 11.8257 10.695 11.5353 10.3008 11.3278C9.90664 11.1203 9.50208 11.0166 9.08714 11.0166C8.65145 11.0166 8.24689 11.11 7.87344 11.2967C7.52075 11.4834 7.20954 11.7427 6.93983 12.0747C6.67012 12.4066 6.46266 12.7905 6.31743 13.2261C6.1722 13.6618 6.09959 14.1286 6.09959 14.6266C6.09959 15.1452 6.1722 15.612 6.31743 16.027C6.4834 16.4419 6.71162 16.805 7.00207 17.1162C7.29253 17.4066 7.63485 17.6349 8.02905 17.8008C8.42324 17.9668 8.85892 18.0498 9.3361 18.0498C9.62656 18.0498 9.89627 18.0187 10.1452 17.9564C10.3942 17.8734 10.6328 17.7697 10.861 17.6452C11.0892 17.5 11.3071 17.3237 11.5145 17.1162C11.7427 16.888 11.9502 16.639 12.1369 16.3693ZM19.4203 17.7697C19.4203 16.6701 19.7211 15.7054 20.3228 14.8755C20.9245 14.0249 21.7543 13.361 22.8124 12.8838C23.8913 12.4066 25.1153 12.168 26.4846 12.168C27.1278 12.168 27.7294 12.2199 28.2896 12.3237C28.8705 12.4274 29.3684 12.583 29.7834 12.7905V12.2925C29.7834 11.5249 29.5552 10.9544 29.0987 10.5809C28.663 10.2075 27.9473 10.0207 26.9514 10.0207C26.0386 10.0207 25.1776 10.1763 24.3684 10.4876C23.5801 10.778 22.7502 11.2137 21.8788 11.7946L20.1672 8.12241C21.2668 7.41701 22.4182 6.89834 23.6215 6.56639C24.8456 6.21369 26.1527 6.03734 27.5427 6.03734C30.1361 6.03734 32.1381 6.62863 33.5489 7.8112C34.9805 8.97303 35.6962 10.7054 35.6962 13.0083V16.1826C35.6962 16.7427 35.7792 17.1369 35.9452 17.3651C36.1112 17.5726 36.4016 17.6971 36.8166 17.7386V22.7178C36.3394 22.8216 35.883 22.8942 35.4473 22.9357C35.0323 22.9979 34.6589 23.029 34.3269 23.029C33.2688 23.029 32.4597 22.8423 31.8996 22.4689C31.3601 22.0747 31.0074 21.5041 30.8415 20.7573L30.717 20.166C29.9908 21.0996 29.1506 21.8154 28.1962 22.3133C27.2419 22.7905 26.2253 23.029 25.1464 23.029C24.0676 23.029 23.0925 22.8008 22.2211 22.3444C21.3498 21.888 20.6651 21.2656 20.1672 20.4772C19.6693 19.668 19.4203 18.7656 19.4203 17.7697ZM29.0054 18.1743C29.2336 18.0083 29.4203 17.8319 29.5655 17.6452C29.7108 17.4378 29.7834 17.2303 29.7834 17.0228V15.8091C29.4514 15.6846 29.0676 15.5809 28.6319 15.4979C28.217 15.4149 27.8435 15.3734 27.5116 15.3734C26.8062 15.3734 26.2045 15.5498 25.7066 15.9025C25.2294 16.2552 24.9908 16.7012 24.9908 17.2407C24.9908 17.5311 25.0738 17.8008 25.2398 18.0498C25.4058 18.278 25.634 18.4647 25.9245 18.61C26.2149 18.7344 26.5469 18.7967 26.9203 18.7967C27.273 18.7967 27.6361 18.7448 28.0095 18.6411C28.4037 18.5166 28.7357 18.361 29.0054 18.1743ZM37.7076 6.34855V22.7178H43.6205V6.34855H37.7076ZM37.7076 0V4.97925H43.6205V0H37.7076ZM45.2429 0H51.1557V16.2137C51.1557 16.8154 51.2802 17.2822 51.5292 17.6141C51.7989 17.9253 52.1827 18.0809 52.6806 18.0809C52.9296 18.0809 53.1993 18.0394 53.4898 17.9564C53.7802 17.8734 54.0499 17.7593 54.2989 17.6141L55.0458 21.971C54.3404 22.3029 53.5416 22.5622 52.6495 22.749C51.7782 22.9357 50.9483 23.029 50.1599 23.029C48.5831 23.029 47.3694 22.6245 46.5188 21.8154C45.6682 20.9855 45.2429 19.8133 45.2429 18.2988V0ZM55.3037 24.7407C54.9096 24.6577 54.4739 24.5332 53.9967 24.3672V29.4087C54.4946 29.6162 54.9925 29.7614 55.4905 29.8444C56.0091 29.9481 56.5278 30 57.0465 30C58.1668 30 59.2145 29.7718 60.1896 29.3154C61.1647 28.8797 62.005 28.2573 62.7104 27.4481C63.4158 26.6598 63.9241 25.7365 64.2353 24.6784L69.7747 6.34855H64.2664L61.7457 16.6494L58.6336 6.34855H52.5652L58.5091 22.7178C58.4676 23.195 58.3639 23.5996 58.1979 23.9315C58.032 24.2635 57.8037 24.5021 57.5133 24.6473C57.2228 24.8133 56.8598 24.8963 56.4241 24.8963C56.0921 24.8963 55.7187 24.8444 55.3037 24.7407ZM76.3401 23.029C74.9086 23.029 73.4978 22.8008 72.1077 22.3444C70.7385 21.8672 69.5766 21.1826 68.6223 20.2905L70.6451 16.6494C71.6617 17.3133 72.6368 17.8319 73.5704 18.2054C74.5248 18.5788 75.3858 18.7656 76.1534 18.7656C76.5891 18.7656 76.9107 18.7137 77.1181 18.61C77.3256 18.4855 77.4293 18.2884 77.4293 18.0187C77.4293 17.8319 77.3567 17.6763 77.2115 17.5519C77.0663 17.4274 76.8277 17.3029 76.4957 17.1784C76.1845 17.0539 75.78 16.9191 75.282 16.7739C73.9957 16.3174 72.9169 15.8921 72.0455 15.4979C71.1949 15.1037 70.5517 14.6266 70.1161 14.0664C69.7011 13.4855 69.4936 12.7178 69.4936 11.7635C69.4936 10.6432 69.7737 9.65768 70.3339 8.80705C70.8941 7.93568 71.6928 7.25104 72.7302 6.75311C73.7882 6.25519 75.0538 6.00623 76.5268 6.00623C77.6264 6.00623 78.726 6.18257 79.8256 6.53527C80.9459 6.86722 82.0248 7.47925 83.0621 8.37137L80.8214 11.9813C79.7841 11.3382 78.9024 10.8817 78.1762 10.612C77.4708 10.3423 76.838 10.2075 76.2779 10.2075C76.0082 10.2075 75.7696 10.2386 75.5621 10.3008C75.3754 10.3631 75.2302 10.4564 75.1264 10.5809C75.0227 10.7054 74.9708 10.8714 74.9708 11.0788C74.9708 11.2863 75.0434 11.4627 75.1887 11.6079C75.3339 11.7324 75.5621 11.8568 75.8733 11.9813C76.1845 12.0851 76.5787 12.2095 77.0559 12.3548C78.4667 12.7697 79.6181 13.195 80.5102 13.6307C81.4024 14.0456 82.0559 14.5539 82.4708 15.1556C82.9065 15.7573 83.1244 16.5456 83.1244 17.5207C83.1244 19.2427 82.5123 20.5913 81.2882 21.5664C80.0849 22.5415 78.4356 23.029 76.3401 23.029ZM92.0552 22.3444C92.9265 22.8008 93.9535 23.029 95.1361 23.029C96.4846 23.029 97.6776 22.6556 98.7149 21.9087C99.2578 21.5255 99.7406 21.0713 100.163 20.546C98.9153 18.7315 98.1846 16.5331 98.1846 14.1631C98.1846 13.4814 98.2459 12.8222 98.3606 12.1802L98.3613 12.1764L98.362 12.1726C98.4295 11.8052 98.5122 11.4437 98.6105 11.0885L98.6117 11.084L98.613 11.0796C98.7282 10.6724 98.8665 10.2729 99.0278 9.88127L99.0301 9.87557L99.0375 9.85812C99.0861 9.74267 99.148 9.59558 99.2195 9.44387C99.4003 9.04576 99.604 8.66104 99.8294 8.2911C99.1743 7.59242 98.419 7.04863 97.5635 6.65975C96.6506 6.24481 95.6444 6.03734 94.5448 6.03734C93.3207 6.03734 92.273 6.27593 91.4016 6.75311C90.551 7.23029 89.8352 7.91494 89.2543 8.80705V6.34855H84.1195V29.3465H90.0323V20.2905C90.5095 21.1826 91.1838 21.8672 92.0552 22.3444ZM94.2647 17.7697C93.912 17.9564 93.5178 18.0498 93.0821 18.0498C92.6672 18.0498 92.2626 17.9461 91.8684 17.7386C91.4742 17.5104 91.1112 17.2095 90.7792 16.8361C90.468 16.4419 90.2191 16.0062 90.0323 15.529V12.6971C90.2191 12.4066 90.4162 12.1577 90.6236 11.9502C90.8518 11.7427 91.0801 11.5768 91.3083 11.4523C91.5365 11.3071 91.7751 11.2033 92.024 11.1411C92.2937 11.0581 92.5635 11.0166 92.8332 11.0166C93.3103 11.0166 93.746 11.0996 94.1402 11.2656C94.5344 11.4315 94.8767 11.6701 95.1672 11.9813C95.4576 12.2718 95.6755 12.6245 95.8207 13.0394C95.9867 13.4544 96.0697 13.9212 96.0697 14.4398C96.0697 14.9378 95.9971 15.4046 95.8518 15.8402C95.7066 16.2759 95.4991 16.6598 95.2294 16.9917C94.9597 17.3237 94.6381 17.583 94.2647 17.7697Z" fill="white"/>
<path d="M113.019 12.8497L112.465 12.447L111.429 11.6947L109.739 10.467L109.653 10.401C109.555 10.3292 109.393 10.3285 109.287 10.3924C109.285 10.3937 109.284 10.3941 109.282 10.3948V10.3948C109.278 10.3959 109.275 10.4025 109.272 10.4051L109.191 10.467L108.782 10.764L107.594 11.6287L106.466 12.447L105.911 12.8497C105.806 12.9223 105.753 13.0873 105.792 13.206L107.079 17.166C107.119 17.2914 107.258 17.3904 107.383 17.3904H111.548C111.673 17.3904 111.812 17.2914 111.851 17.166L113.138 13.206C113.178 13.0807 113.125 12.9223 113.019 12.8497Z" fill="#FAFF00"/>
<path fill-rule="evenodd" clip-rule="evenodd" d="M115.202 6.30682C114.925 6.10412 114.637 5.91533 114.339 5.74147C114.296 5.71816 114.255 5.69485 114.213 5.67153C114.172 5.64863 114.131 5.62572 114.089 5.6028C113.462 5.2662 112.795 4.989 112.095 4.79766C111.508 4.63266 110.894 4.52046 110.267 4.46766C110.003 4.4478 109.739 4.43466 109.469 4.43466C108.69 4.43466 107.937 4.527 107.211 4.69866C106.769 4.80426 106.34 4.93626 105.918 5.10126C105.264 5.35866 104.651 5.68206 104.076 6.06486C103.152 6.67873 102.341 7.45086 101.674 8.34186C101.265 8.88306 100.915 9.47053 100.631 10.0975C100.572 10.2223 100.519 10.3473 100.467 10.4722L100.466 10.4737C100.328 10.8103 100.209 11.1535 100.11 11.5033C100.024 11.8135 99.9514 12.1303 99.892 12.4537C99.793 13.0081 99.7402 13.5757 99.7402 14.1631C99.7402 19.5355 104.096 23.8849 109.462 23.8849C111.608 23.8822 113.593 23.1853 115.202 22.0067V18.6581L113.415 18.9217C113.29 18.9415 113.145 19.0537 113.092 19.1725L112.135 21.4231C111.29 21.7333 110.393 21.8917 109.462 21.8917C108.531 21.8917 107.634 21.7267 106.789 21.4231L105.832 19.1725C105.779 19.0537 105.641 18.9415 105.509 18.9217L103.093 18.5653C102.195 17.2783 101.714 15.7537 101.714 14.1499V14.0641L103.476 12.4405L103.502 12.4141C103.595 12.3283 103.654 12.1567 103.628 12.0247L103.324 10.4605L103.205 9.87313L103.159 9.63553C103.403 9.29886 103.674 8.97553 103.977 8.67186C104.439 8.20986 104.954 7.81386 105.502 7.48386C106.01 7.18026 106.558 6.93606 107.119 6.75786L108.155 7.33873L109.033 7.83373L109.251 7.95253C109.363 8.01853 109.548 8.01853 109.66 7.95253L111.792 6.75786C112.069 6.84373 112.34 6.94926 112.604 7.06153C112.775 7.14073 112.953 7.22653 113.118 7.31233C113.778 7.66873 114.392 8.11753 114.933 8.66533C115.026 8.75832 115.116 8.85131 115.202 8.94617V6.30682ZM116.758 16.7731C117.055 15.9434 117.21 15.0594 117.21 14.1499C117.21 14.1235 117.21 14.0971 117.184 14.0641L116.758 13.6713V7.72454C116.788 7.75851 116.818 7.79268 116.847 7.82706C117.237 8.27586 117.58 8.76433 117.884 9.28573C117.9 9.31873 117.918 9.35007 117.936 9.3814C117.955 9.41273 117.973 9.44406 117.989 9.47706C118.167 9.79386 118.326 10.1239 118.464 10.4671C118.643 10.9027 118.794 11.3581 118.907 11.8267C118.959 12.0297 118.998 12.2326 119.038 12.4357L119.039 12.4405C119.138 12.9949 119.19 13.5691 119.19 14.1499C119.19 16.6172 118.272 18.8701 116.758 20.5859V16.7731Z" fill="#FAFF00"/>
<path d="M127.868 11.39C126.727 11.39 125.689 11.5145 124.756 11.7635C123.822 12.0124 123.127 12.4274 122.671 13.0083V22.7178H116.758V6.34854H122.173V9.46057C122.754 8.36099 123.48 7.52074 124.351 6.93983C125.223 6.33817 126.146 6.03734 127.121 6.03734C127.349 6.03734 127.505 6.03734 127.588 6.03734C127.691 6.03734 127.785 6.04771 127.868 6.06846V11.39Z" fill="white"/>
<path d="M139.943 21.8153C139.404 22.0436 138.823 22.2614 138.2 22.4689C137.599 22.6556 136.976 22.8008 136.333 22.9046C135.711 23.0083 135.099 23.0602 134.497 23.0602C133.605 23.0602 132.785 22.9149 132.038 22.6245C131.291 22.3133 130.69 21.8153 130.233 21.1307C129.798 20.4253 129.58 19.4813 129.58 18.2987V10.7987H127.557V6.34854H129.58V1.21368H135.493V6.34854H138.698V10.7987H135.493V16.2137C135.493 16.7531 135.607 17.1369 135.835 17.3651C136.063 17.5726 136.374 17.6763 136.769 17.6763C137.059 17.6763 137.391 17.6245 137.765 17.5207C138.138 17.417 138.511 17.2925 138.885 17.1473L139.943 21.8153Z" fill="white"/>
<path d="M146.94 23.029C145.509 23.029 144.098 22.8008 142.708 22.3444C141.339 21.8672 140.177 21.1826 139.223 20.2904L141.245 16.6494C142.262 17.3133 143.237 17.8319 144.171 18.2054C145.125 18.5788 145.986 18.7656 146.754 18.7656C147.189 18.7656 147.511 18.7137 147.718 18.61C147.926 18.4855 148.03 18.2884 148.03 18.0187C148.03 17.8319 147.957 17.6763 147.812 17.5519C147.667 17.4274 147.428 17.3029 147.096 17.1784C146.785 17.0539 146.38 16.9191 145.882 16.7738C144.596 16.3174 143.517 15.8921 142.646 15.4979C141.795 15.1037 141.152 14.6265 140.716 14.0664C140.301 13.4855 140.094 12.7178 140.094 11.7635C140.094 10.6431 140.374 9.65767 140.934 8.80705C141.494 7.93568 142.293 7.25103 143.33 6.7531C144.389 6.25518 145.654 6.00622 147.127 6.00622C148.227 6.00622 149.326 6.18256 150.426 6.53526C151.546 6.86721 152.625 7.47925 153.662 8.37136L151.422 11.9813C150.384 11.3382 149.503 10.8817 148.777 10.612C148.071 10.3423 147.438 10.2075 146.878 10.2075C146.608 10.2075 146.37 10.2386 146.162 10.3008C145.976 10.3631 145.83 10.4564 145.727 10.5809C145.623 10.7054 145.571 10.8714 145.571 11.0788C145.571 11.2863 145.644 11.4626 145.789 11.6079C145.934 11.7324 146.162 11.8568 146.474 11.9813C146.785 12.0851 147.179 12.2095 147.656 12.3548C149.067 12.7697 150.218 13.195 151.111 13.6307C152.003 14.0456 152.656 14.5539 153.071 15.1556C153.507 15.7573 153.725 16.5456 153.725 17.5207C153.725 19.2427 153.113 20.5913 151.889 21.5664C150.685 22.5415 149.036 23.029 146.94 23.029Z" fill="white"/>
</svg>
